<svg width="665" height="127" viewBox="0 0 665 127" fill="none" xmlns="http://www.w3.org/2000/svg">
<path d="M663.918 11.1654C664.076 12.1672 663.75 13.2902 662.843 14.5522C661.936 15.8157 660.476 17.175 658.463 18.6189C654.438 21.5053 648.295 24.6617 640.23 28.0263C624.106 34.7524 600.403 42.2686 570.858 50.1088C511.775 65.7877 429.396 82.746 337.726 97.2651C246.056 111.784 162.468 121.113 101.431 124.459C70.9101 126.132 46.0442 126.308 28.6315 124.894C19.9211 124.186 13.1037 123.083 8.38367 121.581C6.02255 120.83 4.21461 119.988 2.96108 119.067C1.70905 118.147 1.05139 117.18 0.892713 116.178C0.73404 115.176 1.06067 114.053 1.96708 112.791C2.87459 111.528 4.33389 110.169 6.34738 108.725C10.3725 105.838 16.5151 102.682 24.5806 99.3173C40.704 92.5912 64.4073 85.075 93.9519 77.2348C153.035 61.5559 235.415 44.5976 327.085 30.0785C418.754 15.5595 502.342 6.23105 563.379 2.88486C593.9 1.21159 618.766 1.03517 636.179 2.44963C644.889 3.1572 651.707 4.26088 656.427 5.76222C658.788 6.51324 660.596 7.35509 661.849 8.27633C663.101 9.19647 663.759 10.1636 663.918 11.1654Z" stroke="url(#paint0_linear_109_5)"/>
<defs>
<linearGradient id="paint0_linear_109_5" x1="327.006" y1="29.5847" x2="337.804" y2="97.7589" gradientUnits="userSpaceOnUse">
<stop offset="0.00130208" stop-color="#D9D9D9" stop-opacity="0"/>
<stop offset="0.328125" stop-color="#D9D9D9"/>
<stop offset="0.703125" stop-color="#D9D9D9" stop-opacity="0"/>
<stop offset="1" stop-color="#D9D9D9"/>
</linearGradient>
</defs>
</svg>
